<svg xmlns="http://www.w3.org/2000/svg" xmlns:xlink="http://www.w3.org/1999/xlink" width="500" zoomAndPan="magnify" viewBox="0 0 375 374.999991" height="500" preserveAspectRatio="xMidYMid meet" version="1.0"><defs><clipPath id="4eca47e496"><path d="M 6.230469 37.5 L 368.769531 37.5 L 368.769531 338.40625 L 6.230469 338.40625 Z M 6.230469 37.5 " clip-rule="nonzero"/></clipPath><clipPath id="19d4a10930"><path d="M 131 105.667969 L 240 105.667969 L 240 308.6875 L 131 308.6875 Z M 131 105.667969 " clip-rule="nonzero"/></clipPath></defs><g clip-path="url(#4eca47e496)"><path fill="#231f20" d="M 331.503906 338.417969 L 43.472656 338.417969 C 22.980469 338.417969 6.308594 321.695312 6.308594 301.140625 L 6.308594 74.785156 C 6.308594 54.230469 22.980469 37.507812 43.472656 37.507812 L 100.109375 37.507812 C 107.492188 37.507812 114.640625 39.683594 120.777344 43.804688 C 126.914062 47.925781 131.648438 53.722656 134.464844 60.570312 L 141.347656 77.304688 L 331.503906 77.304688 C 351.996094 77.304688 368.667969 94.027344 368.667969 114.582031 L 368.667969 301.140625 C 368.667969 321.695312 351.996094 338.417969 331.503906 338.417969 Z M 331.503906 338.417969 " fill-opacity="1" fill-rule="nonzero"/></g><g clip-path="url(#19d4a10930)"><path fill="#ff3131" d="M 140.480469 261.5625 C 140.480469 261.5625 138.742188 239.785156 148.527344 229.371094 C 158.316406 218.953125 184.507812 194.652344 186.722656 174.765625 C 186.722656 174.765625 193.03125 187.074219 189.878906 195.914062 C 189.878906 195.914062 198.089844 185.5 197.136719 170.664062 C 197.136719 170.664062 208.816406 136.574219 194.929688 105.644531 C 194.929688 105.644531 254.898438 155.515625 219.546875 215.484375 C 219.546875 215.484375 233.117188 207.59375 239.117188 195.28125 C 239.117188 195.28125 229.019531 235.679688 189.878906 256.195312 C 189.878906 256.195312 202.660156 253.828125 211.1875 248.144531 C 211.1875 248.144531 192.722656 268.820312 161.15625 274.820312 C 129.59375 280.8125 137.484375 308.910156 137.484375 308.910156 C 137.484375 308.910156 120.125 287.761719 144.113281 268.507812 C 168.101562 249.253906 205.980469 227.789062 212.289062 196.859375 C 212.289062 196.859375 203.453125 219.589844 178.519531 236.632812 C 153.578125 253.671875 140.480469 261.5625 140.480469 261.5625 " fill-opacity="1" fill-rule="evenodd"/></g></svg>